<?xml version="1.0" encoding="utf-8"?>
<!-- Generator: Adobe Illustrator 15.0.2, SVG Export Plug-In  -->
<!DOCTYPE svg PUBLIC "-//W3C//DTD SVG 1.1//EN" "http://www.w3.org/Graphics/SVG/1.1/DTD/svg11.dtd" [
	<!ENTITY ns_flows "http://ns.adobe.com/Flows/1.0/">
]>
<svg version="1.1"
	 xmlns="http://www.w3.org/2000/svg" xmlns:xlink="http://www.w3.org/1999/xlink" xmlns:a="http://ns.adobe.com/AdobeSVGViewerExtensions/3.0/"
	 x="0px" y="0px" width="50px" height="44px" viewBox="0 0 50 44" overflow="visible" enable-background="new 0 0 50 44"
	 xml:space="preserve">
<defs>
</defs>
<g>
	<path fill="#666766" d="M24.999,2c0.488,0,0.949,0.023,1.264,0.062L47.21,4.699c0.243,0.031,0.474,0.164,0.617,0.359
		c0.142,0.193,0.201,0.452,0.159,0.693l-5.715,32.171c-0.101,0.563-0.685,1.153-1.247,1.261l-14.796,2.803
		c-0.32,0.061-0.757,0.094-1.229,0.094c-0.473,0-0.909-0.033-1.229-0.094L8.976,39.184c-0.565-0.108-1.148-0.698-1.248-1.262
		L2.014,5.753C1.971,5.51,2.03,5.25,2.173,5.057C2.315,4.863,2.545,4.73,2.789,4.699l20.946-2.637C24.05,2.023,24.511,2,24.999,2
		 M24.999,0c-0.55,0-1.1,0.026-1.514,0.078L2.539,2.715C1.75,2.814,1.03,3.235,0.562,3.871C0.094,4.506-0.094,5.318,0.044,6.101
		l5.714,32.171c0.245,1.379,1.466,2.612,2.84,2.876l14.799,2.803c0.567,0.107,1.183,0.129,1.601,0.129
		c0.417,0,1.034-0.021,1.601-0.129l14.796-2.803c1.377-0.264,2.599-1.497,2.844-2.876l5.715-32.171
		c0.139-0.782-0.051-1.595-0.519-2.229c-0.468-0.636-1.188-1.057-1.978-1.156L26.513,0.078C26.099,0.026,25.549,0,24.999,0L24.999,0
		z"/>
</g>
<path fill="#666766" d="M36.009,20.15v-0.025c1.09-0.391,2.263-1.847,2.263-3.561c0-2.651-2.263-4.808-5.511-4.808h-3.802H24.86
	h-0.008l-3.403,5.51c-1.326,2.156-1.534,2.625-1.559,2.625h-0.027c-0.025,0-0.234-0.469-1.559-2.625l-3.404-5.51h-4.105v18.192
	h4.287v-4.444c0-4.314-0.156-6.444-0.13-6.444h0.026c0.025,0,1.48,2.494,1.637,2.754l2.131,3.639h2.261l2.132-3.639
	c0.055-0.091,0.791-1.363,1.722-2.971v11.106h7.848c4.496,0,6.497-2.47,6.497-5.51C39.205,22.593,37.724,20.618,36.009,20.15z
	 M29.228,15.421h2.624c1.168,0,2.027,0.727,2.027,1.715c0,0.987-0.859,1.715-2.027,1.715h-2.624V15.421z M32.268,26.283h-3.04
	v-4.106h3.04c1.377,0,2.363,0.78,2.363,2.053C34.631,25.426,33.722,26.283,32.268,26.283z"/>
</svg>
